<svg width="35" height="35" viewBox="0 0 35 35" fill="none" xmlns="http://www.w3.org/2000/svg">
<g id="carbon:play-filled">
<path id="Vector" d="M17.5 2.1875C14.4715 2.1875 11.511 3.08556 8.99284 4.76812C6.47471 6.45068 4.51207 8.84217 3.3531 11.6402C2.19413 14.4382 1.8909 17.517 2.48173 20.4873C3.07257 23.4577 4.53094 26.1861 6.67243 28.3276C8.81393 30.4691 11.5424 31.9274 14.5127 32.5183C17.483 33.1091 20.5619 32.8059 23.3598 31.6469C26.1578 30.4879 28.5493 28.5253 30.2319 26.0072C31.9144 23.489 32.8125 20.5285 32.8125 17.5C32.8125 13.4389 31.1992 9.54408 28.3276 6.67243C25.4559 3.80078 21.5611 2.1875 17.5 2.1875ZM25.6452 18.4789L12.5202 25.0414C12.3534 25.1248 12.168 25.1641 11.9818 25.1556C11.7955 25.1472 11.6145 25.0913 11.4559 24.9932C11.2973 24.8951 11.1665 24.7581 11.0757 24.5952C10.985 24.4323 10.9374 24.249 10.9375 24.0625V10.9375C10.9376 10.7511 10.9853 10.5679 11.0761 10.4051C11.1669 10.2424 11.2978 10.1056 11.4564 10.0076C11.6149 9.90964 11.7959 9.85383 11.982 9.84544C12.1682 9.83706 12.3535 9.87638 12.5202 9.95969L25.6452 16.5222C25.8266 16.6131 25.9792 16.7527 26.0858 16.9254C26.1924 17.0981 26.2488 17.2971 26.2488 17.5C26.2488 17.7029 26.1924 17.9019 26.0858 18.0746C25.9792 18.2473 25.8266 18.3869 25.6452 18.4778V18.4789Z" fill="white"/>
</g>
</svg>
