<svg width="34" height="34" viewBox="0 0 34 34" fill="none" xmlns="http://www.w3.org/2000/svg">
<circle cx="17" cy="17" r="16" stroke="white" stroke-width="2"/>
<g clip-path="url(#clip0_1_53)">
<path d="M20.3501 19.521C21.4476 19.9003 22.4362 20.4289 23.3159 21.1068C24.1955 21.7847 24.9461 22.5756 25.5675 23.4794C26.1889 24.3833 26.665 25.3638 26.9959 26.421C27.3268 27.4782 27.4922 28.5879 27.4922 29.75H25.9427C25.9427 28.4265 25.7087 27.1998 25.2406 26.07C24.7725 24.9401 24.1189 23.9556 23.2796 23.1163C22.4403 22.277 21.4597 21.6273 20.338 21.1673C19.2162 20.7073 17.9855 20.4692 16.6459 20.4531C15.7823 20.4531 14.9511 20.5621 14.1522 20.7799C13.3532 20.9978 12.6108 21.3045 11.9248 21.7C11.2388 22.0954 10.6134 22.5756 10.0485 23.1405C9.48355 23.7054 9.00337 24.3308 8.60793 25.0168C8.21249 25.7028 7.90179 26.4493 7.67582 27.2563C7.44986 28.0633 7.34091 28.8945 7.34898 29.75H5.7995C5.7995 28.5879 5.96897 27.4782 6.30792 26.421C6.64687 25.3638 7.12705 24.3873 7.74845 23.4915C8.36986 22.5957 9.12039 21.8129 10 21.1431C10.8797 20.4733 11.8683 19.9366 12.9658 19.5331C12.3364 19.1942 11.7715 18.7826 11.2711 18.2984C10.7707 17.8141 10.3471 17.2775 10 16.6884C9.65302 16.0992 9.38267 15.4657 9.18899 14.7878C8.9953 14.1099 8.89846 13.4159 8.89846 12.7057C8.89846 11.6324 9.10021 10.6276 9.50372 9.69149C9.90723 8.75534 10.46 7.93218 11.1621 7.22201C11.8643 6.51183 12.6834 5.95902 13.6195 5.56358C14.5557 5.16814 15.5644 4.96638 16.6459 4.95831C17.7192 4.95831 18.7239 5.16007 19.6601 5.56358C20.5962 5.96709 21.4194 6.5199 22.1296 7.22201C22.8397 7.92411 23.3925 8.74324 23.788 9.67938C24.1834 10.6155 24.3852 11.6243 24.3932 12.7057C24.3932 13.4159 24.3004 14.1059 24.1148 14.7757C23.9292 15.4455 23.6589 16.075 23.3038 16.6641C22.9487 17.2533 22.525 17.7899 22.0327 18.2741C21.5404 18.7584 20.9796 19.174 20.3501 19.521ZM10.4479 12.7057C10.4479 13.5612 10.6093 14.3641 10.9321 15.1147C11.255 15.8652 11.6988 16.5189 12.2637 17.0757C12.8286 17.6326 13.4864 18.0764 14.2369 18.4073C14.9874 18.7382 15.7904 18.9036 16.6459 18.9036C17.5013 18.9036 18.3043 18.7422 19.0548 18.4194C19.8053 18.0966 20.459 17.6527 21.0159 17.0878C21.5727 16.5229 22.0166 15.8652 22.3475 15.1147C22.6783 14.3641 22.8438 13.5612 22.8438 12.7057C22.8438 11.8503 22.6824 11.0473 22.3596 10.2968C22.0367 9.54622 21.5929 8.89254 21.028 8.33569C20.4631 7.77885 19.8053 7.33499 19.0548 7.00411C18.3043 6.67323 17.5013 6.50779 16.6459 6.50779C15.7904 6.50779 14.9874 6.6692 14.2369 6.992C13.4864 7.31481 12.8327 7.75867 12.2758 8.32359C11.719 8.8885 11.2751 9.54622 10.9443 10.2968C10.6134 11.0473 10.4479 11.8503 10.4479 12.7057Z" fill="white"/>
</g>
<defs>
<clipPath id="clip0_1_53">
<rect width="24.7917" height="24.7917" fill="white" transform="translate(4.25 4.95831)"/>
</clipPath>
</defs>
</svg>
